<svg width="147" height="67" viewBox="0 0 147 67" fill="none" xmlns="http://www.w3.org/2000/svg">
<g clip-path="url(#clip0_3_7409)">
<path d="M9.81703 57.1556C13.0751 57.4249 14.9599 59.1482 14.9599 61.76C14.9599 63.3756 14.206 67.1453 7.28597 67.1453H6.85515C-0.0648911 67.1453 -0.791899 63.3756 -0.791899 61.76H2.33154C2.33154 62.3255 2.33154 63.9949 6.85515 63.9949H7.28597C11.8096 63.9949 11.8096 62.3255 11.8096 61.76C11.8096 61.3292 11.8096 60.4676 9.62855 60.2791L4.53949 60.1445C1.95458 60.0367 -0.603416 58.5289 -0.603416 55.4054C-0.603416 53.7899 0.123592 50.0202 7.07056 50.0202C13.9906 50.0202 14.7445 53.7899 14.7445 55.4054H11.5942C11.5942 54.84 11.5942 53.1706 7.07056 53.1706C2.52003 53.1706 2.52003 54.84 2.52003 55.4054C2.52003 56.7787 4.00097 56.9941 4.6472 57.021L9.81703 57.1556ZM25.568 50.0202C30.307 50.0202 34.1306 53.8706 34.1306 58.5827C34.1306 63.2948 30.307 67.1453 25.568 67.1453C20.8559 67.1453 17.0324 63.2948 17.0324 58.5827C17.0324 53.8706 20.8559 50.0202 25.568 50.0202ZM25.568 63.9949C28.5568 63.9949 31.0071 61.5715 31.0071 58.5827C31.0071 55.5939 28.5568 53.1706 25.568 53.1706C22.5792 53.1706 20.1559 55.5939 20.1559 58.5827C20.1559 61.5715 22.5792 63.9949 25.568 63.9949ZM43.3139 47.2468C41.5906 47.2468 40.1904 48.647 40.1904 50.3702V50.4779H43.3139V53.6014H40.1904V66.9568H37.067V50.3702C37.067 46.9237 39.8673 44.0964 43.3139 44.0964V47.2468ZM53.6737 50.6395V53.7629H49.3655V59.6867C49.3655 62.0562 51.3042 63.968 53.6737 63.968V67.1183C49.554 67.1183 46.2421 63.7795 46.2421 59.6867V44.258H49.3655V50.6395H53.6737ZM69.2916 43.9618H72.415V58.5827C72.415 63.2948 68.5915 67.1453 63.8525 67.1453C59.1404 67.1453 55.3169 63.2948 55.3169 58.5827C55.3169 53.8706 59.1404 50.0202 63.8525 50.0202C67.1913 50.0202 69.1031 52.2551 69.1031 52.2551H69.2916V43.9618ZM63.8525 63.9949C66.8413 63.9949 69.2916 61.5715 69.2916 58.5827C69.2916 55.5939 66.8413 53.1706 63.8525 53.1706C60.8637 53.1706 58.4403 55.5939 58.4403 58.5827C58.4403 61.5715 60.8637 63.9949 63.8525 63.9949ZM75.6813 56.3209C75.6813 52.8474 78.4816 50.0471 81.9282 50.0471V53.1706C80.2049 53.1706 78.8047 54.5977 78.8047 56.3209V66.9568H75.6813V56.3209ZM91.9632 50.0202C96.7023 50.0202 100.526 53.8706 100.526 58.5827C100.526 63.2948 96.7023 67.1453 91.9632 67.1453C87.2512 67.1453 83.4276 63.2948 83.4276 58.5827C83.4276 53.8706 87.2512 50.0202 91.9632 50.0202ZM91.9632 63.9949C94.9521 63.9949 97.4023 61.5715 97.4023 58.5827C97.4023 55.5939 94.9521 53.1706 91.9632 53.1706C88.9744 53.1706 86.5511 55.5939 86.5511 58.5827C86.5511 61.5715 88.9744 63.9949 91.9632 63.9949ZM106.801 66.9568H103.651V50.4779H106.801V66.9568ZM105.239 48.1623C103.947 48.1623 102.897 47.1122 102.897 45.8197C102.897 44.5272 103.947 43.4771 105.239 43.4771C106.532 43.4771 107.582 44.5272 107.582 45.8197C107.582 47.1122 106.532 48.1623 105.239 48.1623ZM123.88 43.9618H127.004V58.5827C127.004 63.2948 123.18 67.1453 118.441 67.1453C113.729 67.1453 109.906 63.2948 109.906 58.5827C109.906 53.8706 113.729 50.0202 118.441 50.0202C121.78 50.0202 123.692 52.2551 123.692 52.2551H123.88V43.9618ZM118.441 63.9949C121.43 63.9949 123.88 61.5715 123.88 58.5827C123.88 55.5939 121.43 53.1706 118.441 53.1706C115.452 53.1706 113.029 55.5939 113.029 58.5827C113.029 61.5715 115.452 63.9949 118.441 63.9949ZM140.583 57.1556C143.841 57.4249 145.726 59.1482 145.726 61.76C145.726 63.3756 144.972 67.1453 138.052 67.1453H137.621C130.701 67.1453 129.974 63.3756 129.974 61.76H133.097C133.097 62.3255 133.097 63.9949 137.621 63.9949H138.052C142.575 63.9949 142.575 62.3255 142.575 61.76C142.575 61.3292 142.575 60.4676 140.394 60.2791L135.305 60.1445C132.72 60.0367 130.162 58.5289 130.162 55.4054C130.162 53.7899 130.889 50.0202 137.836 50.0202C144.756 50.0202 145.51 53.7899 145.51 55.4054H142.36C142.36 54.84 142.36 53.1706 137.836 53.1706C133.286 53.1706 133.286 54.84 133.286 55.4054C133.286 56.7787 134.767 56.9941 135.413 57.021L140.583 57.1556Z" fill="#455D89"/>
<path fill-rule="evenodd" clip-rule="evenodd" d="M87.6589 10.5687L90.7638 4.02964C91.417 2.65493 90.8879 0.982554 89.5816 0.294673C88.2753 -0.393207 86.6881 0.164252 86.0349 1.54001L83.0383 7.85085C79.8198 6.38253 76.2689 5.56843 72.5371 5.56843C68.8053 5.56843 65.2555 6.38253 62.0359 7.85085L59.0393 1.54001C58.3861 0.165304 56.7979 -0.392156 55.4926 0.294673C54.1863 0.982554 53.6572 2.65387 54.3104 4.02964L57.4153 10.5687C50.5754 15.6005 46.1 23.9529 46.1 33.4055V36.1896C46.1 39.2641 48.4676 41.7568 51.3874 41.7568H93.6868C96.6066 41.7568 98.9742 39.2641 98.9742 36.1896V33.4055C98.9742 23.9529 94.4999 15.6005 87.6589 10.5687ZM60.6412 30.6224C58.4513 30.6224 56.6759 28.7534 56.6759 26.4468C56.6759 24.1412 58.4513 22.2711 60.6412 22.2711C62.831 22.2711 64.6065 24.1402 64.6065 26.4468C64.6065 28.7523 62.831 30.6224 60.6412 30.6224ZM84.4341 30.6224C82.2442 30.6224 80.4688 28.7534 80.4688 26.4468C80.4688 24.1412 82.2442 22.2711 84.4341 22.2711C86.6239 22.2711 88.3994 24.1402 88.3994 26.4468C88.3994 28.7523 86.6239 30.6224 84.4341 30.6224Z" fill="#455D89"/>
</g>
<defs>
<clipPath id="clip0_3_7409">
<rect width="146.937" height="67" fill="white" transform="translate(0.0313721)"/>
</clipPath>
</defs>
</svg>
