<svg width="46" height="45" viewBox="0 0 46 45" fill="none" xmlns="http://www.w3.org/2000/svg">
<circle cx="23.4686" cy="22.5" r="22.5" fill="#374A6E"/>
<path d="M29.1144 22.9375C30.4958 22.9375 31.8205 23.4862 32.7973 24.463C33.774 25.4397 34.3228 26.7645 34.3228 28.1458C34.3228 29.5272 33.774 30.8519 32.7973 31.8287C31.8205 32.8054 30.4958 33.3542 29.1144 33.3542C27.7331 33.3542 26.4083 32.8054 25.4316 31.8287C24.4548 30.8519 23.9061 29.5272 23.9061 28.1458C23.9061 26.7645 24.4548 25.4397 25.4316 24.463C26.4083 23.4862 27.7331 22.9375 29.1144 22.9375ZM31.8019 12C32.9065 12 33.8019 12.8954 33.8019 14V19.375C33.8019 20.4796 32.9065 21.375 31.8019 21.375H26.4269C25.3224 21.375 24.4269 20.4796 24.4269 19.375V14C24.4269 12.8954 25.3224 12 26.4269 12H31.8019ZM20.3436 12C21.4482 12 22.3436 12.8954 22.3436 14V19.375C22.3436 20.4796 21.4482 21.375 20.3436 21.375H14.9686C13.864 21.375 12.9686 20.4796 12.9686 19.375V14C12.9686 12.8954 13.864 12 14.9686 12L20.3436 12ZM20.3436 23.4583C21.4482 23.4583 22.3436 24.3538 22.3436 25.4583V30.8333C22.3436 31.9379 21.4482 32.8333 20.3436 32.8333H14.9686C13.864 32.8333 12.9686 31.9379 12.9686 30.8333V25.4583C12.9686 24.3538 13.864 23.4583 14.9686 23.4583H20.3436Z" fill="#E8F0FF"/>
</svg>
