<svg width="46" height="45" viewBox="0 0 46 45" fill="none" xmlns="http://www.w3.org/2000/svg">
<circle cx="23.4686" cy="22.5" r="22.5" fill="#374A6E"/>
<path d="M33.8853 18.5021V18.5782C33.8853 19.474 33.8853 19.923 33.6697 20.2896C33.4541 20.6563 33.0614 20.874 32.278 21.3105L31.452 21.7688C32.0208 19.8438 32.2114 17.775 32.2812 16.0063L32.2916 15.7761L32.2937 15.7219C32.9718 15.9573 33.353 16.1334 33.5905 16.4625C33.8853 16.8719 33.8853 17.4157 33.8853 18.5021ZM13.052 18.5021V18.5782C13.052 19.474 13.052 19.923 13.2676 20.2896C13.4833 20.6563 13.876 20.874 14.6593 21.3105L15.4864 21.7688C14.9166 19.8438 14.726 17.775 14.6562 16.0063L14.6458 15.7761L14.6447 15.7219C13.9655 15.9573 13.5843 16.1334 13.3468 16.4625C13.052 16.8719 13.052 17.4167 13.052 18.5021Z" fill="#E8F0FF"/>
<path fill-rule="evenodd" clip-rule="evenodd" d="M28.028 12.4448C26.5209 12.1979 24.9958 12.077 23.4686 12.0834C21.6113 12.0834 20.0801 12.2469 18.9092 12.4448C17.7228 12.6448 17.1301 12.7448 16.6342 13.3552C16.1394 13.9657 16.1655 14.625 16.2176 15.9438C16.3978 20.4729 17.3749 26.1313 22.6874 26.6313V30.3125H21.1978C20.9571 30.3127 20.7238 30.3962 20.5377 30.5489C20.3516 30.7016 20.2241 30.914 20.1769 31.15L19.979 32.1354H17.2186C17.0114 32.1354 16.8127 32.2178 16.6662 32.3643C16.5197 32.5108 16.4374 32.7095 16.4374 32.9167C16.4374 33.1239 16.5197 33.3226 16.6662 33.4691C16.8127 33.6156 17.0114 33.6979 17.2186 33.6979H29.7186C29.9258 33.6979 30.1245 33.6156 30.271 33.4691C30.4175 33.3226 30.4999 33.1239 30.4999 32.9167C30.4999 32.7095 30.4175 32.5108 30.271 32.3643C30.1245 32.2178 29.9258 32.1354 29.7186 32.1354H26.9582L26.7603 31.15C26.7131 30.914 26.5856 30.7016 26.3995 30.5489C26.2134 30.3962 25.9802 30.3127 25.7394 30.3125H24.2499V26.6313C29.5624 26.1313 30.5405 20.474 30.7197 15.9438C30.7717 14.625 30.7988 13.9646 30.303 13.3552C29.8072 12.7448 29.2144 12.6448 28.028 12.4448Z" fill="#E8F0FF"/>
</svg>
